<svg xmlns="http://www.w3.org/2000/svg" viewBox="0 0 96 96" fill="none">
  <path d="M80 12C44 12 16 40 16 76" stroke="currentColor" stroke-width="1.5" stroke-linecap="round"/>
  <path d="M76 22c-18 0-32 14-32 32M67 35c-8 0-14 6-14 14" stroke="currentColor" stroke-width="1.1" stroke-linecap="round"/>
  <path d="M16 76c10-5 18-5 28 0-10 5-18 5-28 0Zm33-33c9-7 20-7 29 0-9 7-20 7-29 0Z" stroke="currentColor" stroke-width="1.1"/>
  <path d="M23 28c8 2 13 7 15 15M38 13c6 4 10 9 11 17" stroke="currentColor" stroke-width="1.1" stroke-linecap="round"/>
</svg>
