<svg xmlns="http://www.w3.org/2000/svg" viewBox="0 0 360 88" fill="none">
  <path d="M34 10h292c10 0 18 8 18 18v32c0 10-8 18-18 18H34c-10 0-18-8-18-18V28c0-10 8-18 18-18Z" stroke="currentColor" stroke-width="1.4"/>
  <path d="M48 20h264M48 68h264" stroke="currentColor" stroke-width=".9"/>
  <path d="M23 44c16-3 23-10 26-26M23 44c16 3 23 10 26 26M337 44c-16-3-23-10-26-26M337 44c-16 3-23 10-26 26" stroke="currentColor" stroke-width="1.1" stroke-linecap="round"/>
  <path d="M72 44c8-10 22-10 30 0-8 10-22 10-30 0Zm186 0c8-10 22-10 30 0-8 10-22 10-30 0Z" stroke="currentColor" stroke-width=".9"/>
</svg>
