<svg xmlns="http://www.w3.org/2000/svg" viewBox="0 0 96 96" fill="none">
  <path d="M16 12c36 0 64 28 64 64" stroke="currentColor" stroke-width="1.5" stroke-linecap="round"/>
  <path d="M20 22c18 0 32 14 32 32M29 35c8 0 14 6 14 14" stroke="currentColor" stroke-width="1.1" stroke-linecap="round"/>
  <path d="M80 76c-10-5-18-5-28 0 10 5 18 5 28 0ZM47 43c-9-7-20-7-29 0 9 7 20 7 29 0Z" stroke="currentColor" stroke-width="1.1"/>
  <path d="M73 28c-8 2-13 7-15 15M58 13c-6 4-10 9-11 17" stroke="currentColor" stroke-width="1.1" stroke-linecap="round"/>
</svg>
